<svg width="610" height="698" viewBox="0 0 610 698" fill="none" xmlns="http://www.w3.org/2000/svg">
<path d="M645.305 479.489L723.375 363.4C734.463 349.37 782.663 282.613 763.201 203.411C748.604 144.01 694.407 94.3388 604.003 61.6405L497.645 23.1718C407.24 -9.52665 333.809 -6.01839 284.59 30.302C218.966 78.7293 215.233 155.556 212.857 178.751L198.602 317.921C118.947 355.26 52.8705 421.564 20.1722 511.968C-20.22 623.644 3.655 740.524 67.5835 829.796L418.565 956.742C524.809 929.021 617.927 854.456 658.319 742.78C691.018 652.376 682.644 559.144 645.305 479.489ZM317.405 288.728L323.514 188.706L325.438 183.389C325.438 183.389 328.266 142.316 351.913 126.815C370.243 109.39 405.997 110.295 459.176 129.53L565.534 167.998C613.395 185.309 646.773 209.409 656.957 231.133C665.217 258.175 641.117 291.553 641.117 291.553L577.982 382.976C541.209 351.635 502.513 325.612 454.652 308.301C406.791 290.99 360.401 286.238 317.405 288.728Z" fill="#F7F7F7" fill-opacity="0.76"/>
</svg>
